<svg xmlns="http://www.w3.org/2000/svg" width="100.277" height="117.607" viewBox="0 0 100.277 117.607">
  <path id="Icon_weather-alien" data-name="Icon weather-alien" d="M14.774,74.917Q2.9,49.474,18.449,26.929c7.28-10.46,18.376-16.891,33.429-19.224A19.756,19.756,0,0,1,55.7,7.14h4.453c20.566.636,35.691,9.753,45.232,27.422,4.523,8.34,5.654,17.527,3.392,27.634a74.619,74.619,0,0,1-9.046,22.4c-9.117,14.206-18.588,25.726-28.27,34.489a22.016,22.016,0,0,1-2.12,1.838c-3.251,2.474-6.29,3.746-9.046,3.816s-5.866-.989-9.258-3.18a23.821,23.821,0,0,1-5.23-4.17C31.948,103.258,21.559,89.123,14.774,74.917ZM15.552,59.3c.141.777.353,1.767.636,3.11s.495,2.262.636,2.827C18.8,74.14,22.9,81,29.051,85.943c6.219,4.947,13.852,7.845,23.04,8.693q3.074.318,3.6-.212c.353-.353.565-1.626.636-3.675-.071-.565-.212-1.484-.353-2.756a23.291,23.291,0,0,0-.424-2.756c-1.767-9.47-6.219-16.4-13.428-20.708-1.272-.777-2.756-1.555-4.382-2.4s-3.11-1.413-4.311-1.908-2.827-1.131-4.877-1.908-3.534-1.343-4.453-1.767a18.694,18.694,0,0,0-5.654-.777C16.188,55.764,15.2,56.966,15.552,59.3ZM63.611,90.4c-.141,2.191,0,3.463.424,3.958.495.495,1.767.565,3.887.283A67.691,67.691,0,0,0,76.4,93.081,33.173,33.173,0,0,0,94.92,81a31.108,31.108,0,0,0,5.442-9.47,84.143,84.143,0,0,0,3.322-12.156c.353-1.626.283-2.686-.212-3.251s-1.555-.777-3.11-.565a65.172,65.172,0,0,0-11.237,2.827C81,61.418,74.848,65.518,70.608,70.677,66.367,75.907,64.035,82.409,63.611,90.4Z" transform="translate(-9.626 -7.14)"/>
</svg>
