<svg xmlns="http://www.w3.org/2000/svg" xmlns:xlink="http://www.w3.org/1999/xlink" width="387" height="151" viewBox="0 0 387 151">
  <defs>
    <clipPath id="clip-custom_3">
      <rect width="387" height="151"/>
    </clipPath>
  </defs>
  <g id="custom_3" data-name="custom – 3" clip-path="url(#clip-custom_3)">
    <g id="Group_2" data-name="Group 2">
      <path id="Icon_weather-alien" data-name="Icon weather-alien" d="M13.722,61.066Q4.275,40.823,16.646,22.885c5.792-8.322,14.62-13.439,26.6-15.3a15.719,15.719,0,0,1,3.037-.45h3.543c16.363.506,28.4,7.76,35.988,21.818,3.6,6.635,4.5,13.945,2.7,21.987a59.37,59.37,0,0,1-7.2,17.825c-7.254,11.3-14.789,20.468-22.493,27.441a17.519,17.519,0,0,1-1.687,1.462c-2.587,1.968-5,2.98-7.2,3.036a13.31,13.31,0,0,1-7.366-2.53,18.953,18.953,0,0,1-4.161-3.318C27.387,83.615,19.12,72.369,13.722,61.066Zm.619-12.427c.112.619.281,1.406.506,2.474s.394,1.8.506,2.249c1.574,7.085,4.836,12.54,9.728,16.476,4.948,3.936,11.021,6.242,18.332,6.917q2.446.253,2.868-.169c.281-.281.45-1.293.506-2.924-.056-.45-.169-1.181-.281-2.193a18.532,18.532,0,0,0-.337-2.193C44.762,61.741,41.22,56.23,35.484,52.8c-1.012-.619-2.193-1.237-3.486-1.912s-2.474-1.125-3.43-1.518-2.249-.9-3.88-1.518-2.812-1.068-3.543-1.406a14.873,14.873,0,0,0-4.5-.619C14.847,45.827,14.06,46.783,14.341,48.639ZM52.578,73.381c-.112,1.743,0,2.755.337,3.149.394.394,1.406.45,3.093.225a53.855,53.855,0,0,0,6.748-1.237A26.393,26.393,0,0,0,77.489,65.9a24.751,24.751,0,0,0,4.33-7.535A66.948,66.948,0,0,0,84.462,48.7c.281-1.293.225-2.137-.169-2.587s-1.237-.619-2.474-.45a51.853,51.853,0,0,0-8.941,2.249c-6.467,2.418-11.359,5.679-14.733,9.784C54.771,61.853,52.916,67.027,52.578,73.381Z" transform="matrix(0.829, -0.559, 0.559, 0.829, 93.83, 34.587)"/>
      <text id="AlienBook" transform="translate(4 140)" font-size="82" font-family="SegoeUI-Semibold, Segoe UI" font-weight="600"><tspan x="0" y="0">AlienBook</tspan></text>
    </g>
  </g>
</svg>
