<svg xmlns="http://www.w3.org/2000/svg" viewBox="0 0 512 512"><path d="M497 80.333h-65.334V15c0-8.284-6.716-15-15-15s-15 6.716-15 15v65.333h-65.332c-8.284 0-15 6.716-15 15s6.716 15 15 15h65.332v65.334c0 8.284 6.716 15 15 15s15-6.716 15-15v-65.334H497c8.284 0 15-6.716 15-15s-6.716-15-15-15zM175.666 321.334C78.804 321.334 0 400.138 0 497c0 8.284 6.716 15 15 15h321.334c8.284 0 15-6.716 15-15 0-96.862-78.805-175.666-175.668-175.666zM175.666 64.267c-52.566 0-95.332 42.767-95.332 95.334s42.766 95.333 95.332 95.333c52.567 0 95.334-42.766 95.334-95.333s-42.767-95.334-95.334-95.334z"/></svg>