<svg xmlns="http://www.w3.org/2000/svg" width="100.277" height="117.607"><path data-name="Icon weather-alien" d="M5.148 67.777Q-6.726 42.334 8.823 19.789C16.103 9.329 27.199 2.898 42.252.565A19.756 19.756 0 0146.074 0h4.453c20.566.636 35.691 9.753 45.232 27.422 4.523 8.34 5.654 17.527 3.392 27.634a74.619 74.619 0 01-9.046 22.4c-9.117 14.206-18.588 25.726-28.27 34.489a22.016 22.016 0 01-2.12 1.838c-3.251 2.474-6.29 3.746-9.046 3.816s-5.866-.989-9.258-3.18a23.821 23.821 0 01-5.23-4.17C22.322 96.118 11.933 81.983 5.148 67.777zm.778-15.617c.141.777.353 1.767.636 3.11s.495 2.262.636 2.827C9.174 67 13.274 73.86 19.425 78.803c6.219 4.947 13.852 7.845 23.04 8.693q3.074.318 3.6-.212c.353-.353.565-1.626.636-3.675-.071-.565-.212-1.484-.353-2.756a23.291 23.291 0 00-.424-2.756c-1.767-9.47-6.219-16.4-13.428-20.708-1.272-.777-2.756-1.555-4.382-2.4s-3.11-1.413-4.311-1.908-2.827-1.131-4.877-1.908-3.534-1.343-4.453-1.767a18.694 18.694 0 00-5.654-.777c-2.257-.005-3.245 1.197-2.893 3.531zm48.059 31.1c-.141 2.191 0 3.463.424 3.958.495.495 1.767.565 3.887.283a67.691 67.691 0 008.478-1.56 33.173 33.173 0 0018.52-12.081 31.108 31.108 0 005.442-9.47 84.143 84.143 0 003.322-12.156c.353-1.626.283-2.686-.212-3.251s-1.555-.777-3.11-.565a65.172 65.172 0 00-11.237 2.827c-8.125 3.033-14.277 7.133-18.517 12.292-4.241 5.23-6.573 11.732-6.997 19.723z" fill="#fff"/></svg>