<svg xmlns="http://www.w3.org/2000/svg" width="387" height="151"><defs><clipPath id="prefix__a"><path d="M0 0h387v151H0z"/></clipPath></defs><g data-name="custom – 3"><g data-name="Group 2" clip-path="url(#prefix__a)"><path data-name="Icon weather-alien" d="M139.341 77.54q-19.147-11.5-18.919-33.286c.15-10.137 4.608-19.314 13.499-27.554a15.717 15.717 0 012.266-2.07l2.937-1.98c13.848-8.728 27.882-9.443 42.03-2.031 6.694 3.488 11.526 9.045 14.53 16.718a59.362 59.362 0 013.995 18.802c.303 13.422-.819 25.235-3.307 35.322a17.517 17.517 0 01-.582 2.155c-1.044 3.077-2.479 5.265-4.271 6.542a13.308 13.308 0 01-7.52 2.02 18.95 18.95 0 01-5.305-.425c-15.42-3.158-28.56-7.86-39.353-14.213zm-6.433-10.648c.439.45 1.019 1.009 1.802 1.768s1.333 1.272 1.677 1.582c5.265 4.993 11.019 7.692 17.275 8.22 6.302.497 12.625-.986 19.063-4.513q2.17-1.158 2.284-1.743c.075-.39-.35-1.324-1.216-2.707-.297-.342-.8-.885-1.458-1.661a18.53 18.53 0 00-1.506-1.63c-5.378-5.46-11.395-8.048-18.068-7.685-1.185.052-2.509.2-3.958.363s-2.68.45-3.692.66-2.368.51-4.065.91-2.929.686-3.723.815a14.87 14.87 0 00-4.077 2.002c-1.49 1.005-1.609 2.238-.338 3.62zm45.53-.863c.88 1.507 1.54 2.284 2.039 2.422.547.106 1.417-.413 2.69-1.543a53.848 53.848 0 004.902-4.797 26.39 26.39 0 006.837-16.21 24.748 24.748 0 00-.622-8.666 66.939 66.939 0 00-3.212-9.49c-.49-1.229-1.008-1.897-1.586-2.05s-1.371.178-2.302 1.01a51.846 51.846 0 00-6.155 6.862c-4.01 5.62-6.242 11.058-6.745 16.347-.473 5.332.881 10.658 4.153 16.115z"/><text transform="translate(4 140)" font-size="82" font-family="SegoeUI-Semibold, Segoe UI" font-weight="600"><tspan x="0" y="0">AlienBook</tspan></text></g></g></svg>